<?xml version="1.0" standalone="no"?><!DOCTYPE svg PUBLIC "-//W3C//DTD SVG 1.1//EN" "http://www.w3.org/Graphics/SVG/1.1/DTD/svg11.dtd"><svg t="1554386379284" class="icon" style="" viewBox="0 0 1024 1024" version="1.1" xmlns="http://www.w3.org/2000/svg" p-id="6344" xmlns:xlink="http://www.w3.org/1999/xlink" width="32" height="32"><defs><style type="text/css"></style></defs><path d="M457.82016 380.75904c0 33.73056 27.34592 61.0816 61.0816 61.0816 33.72544 0 61.07648-27.34592 61.07648-61.0816s-27.35104-61.07648-61.07648-61.07648c-33.73568 0-61.0816 27.34592-61.0816 61.07648z" p-id="6345" fill="#ffffff"></path><path d="M761.06752 437.98016a17.54112 17.54112 0 0 0 14.66368 8.07424 17.49504 17.49504 0 0 0 14.7968-26.92096c-0.53248-0.82432-54.00064-86.52288-8.02816-144.55296 25.40032-32.08192 29.99296-72.61696 13.30176-117.23264-11.9296-31.85152-30.73536-54.73792-31.50848-55.71072a17.5104 17.5104 0 0 0-24.64256-2.31936 17.5104 17.5104 0 0 0-2.34496 24.61696c0.84992 1.03424 60.45696 74.97728 17.75104 128.91648-61.50656 77.65504 3.2256 180.76672 6.01088 185.12896z m117.4016 0.52736a17.57184 17.57184 0 0 0 14.6688 8.07424 17.4592 17.4592 0 0 0 9.4976-2.7648 17.4848 17.4848 0 0 0 5.31968-24.15616c-0.52736-0.8192-54.00576-86.52288-8.02816-144.55296 25.3952-32.08192 29.98784-72.61696 13.29664-117.23264-11.9296-31.85152-30.72512-54.73792-31.50848-55.7056a17.48992 17.48992 0 1 0-26.97728 22.27712c0.60928 0.7424 60.53376 74.86976 17.75104 128.91648-61.51168 77.69088 3.19488 180.80768 5.98016 185.14432z m-734.54592 4.72064a17.55136 17.55136 0 0 0 14.6688 8.07424h0.08192c3.49184 0 6.74304-1.02912 9.472-2.80064a17.44896 17.44896 0 0 0 5.2224-24.1152c-0.52736-0.82432-54.00064-86.52288-8.03328-144.55296 25.40032-32.08192 29.99296-72.61184 13.30176-117.23264-11.9296-31.8464-30.72512-54.73792-31.50848-55.7056a17.50016 17.50016 0 0 0-26.9824 22.27712c0.60928 0.73728 60.53376 74.86976 17.74592 128.91648-61.48096 77.68576 3.24608 180.79744 6.03136 185.1392z m117.40672 0.55296a17.57696 17.57696 0 0 0 14.6688 8.07424 17.46432 17.46432 0 0 0 14.7968-26.91584c-0.52736-0.82432-54.00064-86.528-8.02816-144.55296 25.3952-32.08192 29.99296-72.61696 13.32224-117.23264-11.9296-31.85152-30.73024-54.73792-31.5136-55.71072a17.50016 17.50016 0 0 0-26.9824 22.27712c0.60928 0.73728 60.53888 74.86976 17.75104 128.91136-61.53216 77.69088 3.20512 180.78208 5.98528 185.14944z m591.64672 365.88544h-0.1024A21.0944 21.0944 0 0 1 831.8976 788.48c0.79872-174.28992-140.3648-316.73344-314.68032-317.54752h-1.4848c-173.63456 0-315.28448 140.83584-316.0832 314.66496a21.0688 21.0688 0 0 1-21.07904 20.97664h-0.1024a21.08416 21.08416 0 0 1-20.97664-21.18144c0.91648-196.992 161.4592-356.61824 358.23104-356.61824h1.69984c197.55008 0.9216 357.5552 162.36544 356.62336 359.91552a21.08416 21.08416 0 0 1-21.0688 20.97664z" p-id="6346" fill="#ffffff"></path><path d="M869.99552 958.30016h-0.31232l-705.1264-3.25632c-20.49024-0.08192-40.22784-10.02496-54.1696-27.29472-13.12256-16.24064-20.29568-37.51936-20.19328-59.96032 0.11264-22.43584 7.47008-43.65824 20.736-59.776 14.08-17.10592 33.39776-26.18368 54.4256-26.7776l460.86144 2.14016a21.0944 21.0944 0 0 1 20.98176 21.18656c-0.06656 11.648-8.68864 21.2992-21.18656 20.97664l-460.97408-2.14528c-10.57792 0-18.04288 7.14752-21.55008 11.42784-7.01952 8.51968-11.07456 20.59776-11.136 33.1776-0.06144 12.55424 3.8912 24.67328 10.82368 33.28512 3.49184 4.3008 10.9312 11.56608 21.56032 11.60704l705.2544 3.2512c10.57792 0 18.05312-7.13728 21.5552-11.4176 7.01952-8.5248 11.07968-20.62336 11.136-33.1776 0.06144-12.55936-3.89632-24.6784-10.8288-33.28512-3.49696-4.30592-10.92608-11.5712-21.55008-11.61728l-105.20064-0.49152a21.08416 21.08416 0 0 1 0.09728-42.15808h0.10752l105.18528 0.49152c20.48 0.08704 40.21248 10.02496 54.15936 27.29472 13.12768 16.24576 20.29056 37.52448 20.18816 59.96032-0.10752 22.42048-7.47008 43.63776-20.72576 59.78112-14.02368 17.01888-33.7408 26.7776-54.1184 26.7776z m-350.99648-496.256c-45.31712 0-82.18112-36.864-82.18112-82.18112 0-45.31712 36.864-82.19136 82.18112-82.19136 45.32736 0 82.19136 36.87424 82.19136 82.19136s-36.86912 82.18112-82.19136 82.18112z m0-122.21952c-22.0672 0-40.02816 17.96096-40.02816 40.0384 0 22.0672 17.96096 40.02816 40.02816 40.02816 22.06208 0 40.02816-17.96096 40.02816-40.02816 0.00512-22.07744-17.96608-40.0384-40.02816-40.0384z" p-id="6347" fill="#ffffff"></path></svg>