<?xml version="1.0" standalone="no"?><!DOCTYPE svg PUBLIC "-//W3C//DTD SVG 1.1//EN" "http://www.w3.org/Graphics/SVG/1.1/DTD/svg11.dtd"><svg t="1554260186377" class="icon" style="" viewBox="0 0 1024 1024" version="1.1" xmlns="http://www.w3.org/2000/svg" p-id="5419" xmlns:xlink="http://www.w3.org/1999/xlink" width="32" height="32"><defs><style type="text/css"></style></defs><path d="M311.407407 645.62963a155.950617 155.950617 0 0 1-67.259259 15.308642 158.024691 158.024691 0 0 1-32.888889-3.654321l70.419753 225.679012h106.271605l-35.654321-225.975309a118.518519 118.518519 0 0 1-40.888889-11.358024z" fill="#6ADDD6" p-id="5420"></path><path d="M637.234568 676.444444L604.740741 882.962963H711.111111l64.888889-208a181.432099 181.432099 0 0 1-138.271605 1.481481zM494.419753 617.777778a264.987654 264.987654 0 0 1-38.814815-2.962963 119.506173 119.506173 0 0 1-91.851852 42.765432c-3.851852 0-7.604938 0-11.45679-0.592593l35.654321 225.975309h108.641976V617.679012z" fill="#00C4B8" p-id="5421"></path><path d="M554.864198 610.37037a249.580247 249.580247 0 0 1-58.567902 7.308642V882.962963h108.641976l32.493827-206.518519a180.641975 180.641975 0 0 1-82.567901-66.074074z" fill="#6ADDD6" p-id="5422"></path><path d="M310.617284 645.037037a119.111111 119.111111 0 0 0 40.888889 11.45679l-17.185185-111.802469h-158.024692l34.567902 112.197531a149.62963 149.62963 0 0 0 32.790123 3.654321 156.444444 156.444444 0 0 0 66.962963-15.506173z" fill="#00C4B8" p-id="5423"></path><path d="M657.481481 545.777778l-21.135802 131.160494a180.740741 180.740741 0 0 0 138.271605-0.987655l40.888889-129.679012zM362.962963 657.185185a119.407407 119.407407 0 0 0 91.950617-42.567901 252.049383 252.049383 0 0 0 38.814815 3.160494h1.876543v-72.395062l-161.580247-0.592593 17.185186 111.80247a109.728395 109.728395 0 0 0 11.753086 0.592592z" fill="#00B2A7" p-id="5424"></path><path d="M554.271605 610.567901a180.641975 180.641975 0 0 0 82.074074 66.370371l21.135802-131.160494H495.901235v72.395062a245.333333 245.333333 0 0 0 58.37037-7.604939z" fill="#00C4B8" p-id="5425"></path><path d="M728.098765 376.592593a102.617284 102.617284 0 0 0 3.555556-26.567902 105.283951 105.283951 0 0 0-159.901235-90.074074 185.283951 185.283951 0 0 0-341.530864 99.851852 188.148148 188.148148 0 0 0 3.950618 38.320988 107.654321 107.654321 0 1 0 79.012345 190.222222 71.703704 71.703704 0 0 0 119.407408-28.444444 189.530864 189.530864 0 0 0 62.320987 9.876543 170.962963 170.962963 0 0 0 83.555556-19.753087 133.530864 133.530864 0 1 0 150.123457-173.629629z" fill="#FF6B5B" p-id="5426"></path><path d="M176.296296 505.283951a107.654321 107.654321 0 0 1 97.777778-107.160494 188.148148 188.148148 0 0 1-4.049383-38.320988 185.580247 185.580247 0 0 1 165.333334-184.395062 185.08642 185.08642 0 0 0-205.135803 184.395062 188.148148 188.148148 0 0 0 3.950618 38.320988 107.654321 107.654321 0 0 0 9.876543 214.91358 112.098765 112.098765 0 0 0 19.753086-1.876543 107.851852 107.851852 0 0 1-87.506173-105.876543zM728.098765 376.592593a102.617284 102.617284 0 0 0 3.555556-26.567902 105.382716 105.382716 0 0 0-105.382716-105.382716 111.209877 111.209877 0 0 0-18.271605 1.777778 105.382716 105.382716 0 0 1 86.320988 103.604938 102.617284 102.617284 0 0 1-3.555556 26.567902 133.530864 133.530864 0 0 1-4.938272 263.703703 147.45679 147.45679 0 0 0 18.864198 1.382716 133.530864 133.530864 0 0 0 23.407407-265.086419z" fill="#DC4E45" p-id="5427"></path><path d="M450.074074 311.901235a20.246914 20.246914 0 0 1-19.753086 20.246913H385.185185a20.246914 20.246914 0 0 1-19.753086-20.246913 19.753086 19.753086 0 0 1 19.753086-19.753087h44.839506a19.753086 19.753086 0 0 1 19.753087 19.753087zM592 433.382716a20.345679 20.345679 0 0 1-15.703704 23.901235l-43.950617 9.086419a20.345679 20.345679 0 0 1-23.901235-15.703703 19.753086 19.753086 0 0 1 15.703704-23.901235l43.950617-9.08642a19.753086 19.753086 0 0 1 23.901235 15.703704zM653.432099 364.148148a19.753086 19.753086 0 0 1-27.555556 7.604938l-39.012345-22.123456a19.753086 19.753086 0 0 1-7.604939-27.45679 19.753086 19.753086 0 0 1 27.45679-7.604939l39.506173 22.024692a20.345679 20.345679 0 0 1 7.604938 27.555555zM423.506173 451.061728a20.345679 20.345679 0 0 1-5.728395 28.049383L380.345679 503.703704a19.753086 19.753086 0 0 1-28.049383-5.728395 19.753086 19.753086 0 0 1 5.827161-27.950618l37.432099-24.691358a19.753086 19.753086 0 0 1 27.950617 5.728395zM268.148148 508.839506a19.753086 19.753086 0 0 1-26.765432 9.876543l-40.790123-18.765432a19.753086 19.753086 0 0 1-9.876544-26.765432 20.345679 20.345679 0 0 1 26.864198-9.876543l40.790123 18.765432a19.753086 19.753086 0 0 1 9.876544 26.765432zM748.54321 487.802469a19.753086 19.753086 0 0 1-8.888889 27.160494l-39.506173 19.753086a19.753086 19.753086 0 0 1-27.160494-8.790123 19.753086 19.753086 0 0 1 8.888889-27.160494L720.987654 478.91358a19.753086 19.753086 0 0 1 27.160494 8.888889z" fill="#FFFFFF" p-id="5428"></path></svg>