<?xml version="1.0" standalone="no"?><!DOCTYPE svg PUBLIC "-//W3C//DTD SVG 1.1//EN" "http://www.w3.org/Graphics/SVG/1.1/DTD/svg11.dtd"><svg t="1554432970994" class="icon" style="" viewBox="0 0 1024 1024" version="1.1" xmlns="http://www.w3.org/2000/svg" p-id="6512" xmlns:xlink="http://www.w3.org/1999/xlink" width="16" height="16"><defs><style type="text/css"></style></defs><path d="M925.3 320.2c-2.3-5.8-7.1-12.2-14.5-19.1l-101.1-92.7c-27.1-24.8-78.6-44.9-115.4-44.9H345.8c-36.6 0-89.1 19.1-117 42.9l-114.6 96.9c-6.5 5.5-11.1 10.7-13.8 15.5A99.636 99.636 0 0 0 64 395.9v365c0 55 44.5 99.5 99.5 99.5h697c55.1 0 99.5-44.5 99.5-99.5V395.8c0-30.2-13.4-57.4-34.7-75.6zM528.6 196.7h148.5c25.7 0 65.2 14.5 84.1 31l78.9 68.5H528.6v-99.5z m-253.3 30c19.8-15.9 60.3-29.9 86.5-29.9h133.6v99.5h-307l86.9-69.6z m634.9 534.2c0 27.5-22.2 49.9-49.8 49.9h-697c-27.5 0-49.8-22.2-49.8-49.9v-365c0-27.5 22.2-49.9 49.8-49.9h697c27.5 0 49.8 22.2 49.8 49.9v365z" fill="#ffffff" p-id="6513"></path><path d="M817.6 628.2H647.8c-10.7 0-19.7 8.9-19.7 19.8 0 11 8.8 19.8 19.7 19.8h169.7c10.7 0 19.7-8.9 19.7-19.8 0-11-8.8-19.8-19.6-19.8zM814.3 711.1H515.1c-10.9 0-19.7 8.9-19.7 19.8 0 11 8.8 19.8 19.7 19.8h299.2c10.9 0 19.7-8.9 19.7-19.8-0.1-11-8.8-19.8-19.7-19.8z" fill="#ffffff" p-id="6514"></path></svg>